# xmcd CD database file
#
# Track frame offsets:
#	150
#	2310
#	17375
#	35770
#	51398
#	76045
#	92090
#	111601
#	130241
#	143097
#	167828
#	181505
#	195318
#	209535
#	226553
#	241950
#
# Disc length: 3484 seconds
#
# Revision: 0
# Processed by: cddbd v1.5.1PL0 Copyright (c) Steve Scherf et al.
# Submitted via: CDex 1.51
#
DISCID=c00d9a10
DTITLE=Butch Walker - Letters
DYEAR=2004
DGENRE=Rock
TTITLE0=Sunny Day Real Estate
TTITLE1=Maybe It's Just Me
TTITLE2=Mixtape
TTITLE3=#1 Summer Jam
TTITLE4=So At Last
TTITLE5=Uncomfortably Numb
TTITLE6=Joan
TTITLE7=Don't Move
TTITLE8=Lights Out
TTITLE9=Best Thing You Never Had
TTITLE10=Race Cars And Goth Rock
TTITLE11=Promise
TTITLE12=Thank-You Note
TTITLE13=Last Flight Out
TTITLE14=My Best Friend's Magic Girlfriend
TTITLE15=State Line (hidden track)
EXTD=YEAR: 2004
EXTT0=
EXTT1=
EXTT2=
EXTT3=
EXTT4=
EXTT5=
EXTT6=
EXTT7=
EXTT8=
EXTT9=
EXTT10=
EXTT11=
EXTT12=
EXTT13=
EXTT14=
EXTT15=
PLAYORDER=
